<svg width="1503" height="780" viewBox="0 0 1503 780" fill="none" xmlns="http://www.w3.org/2000/svg">
  <path fill-rule="evenodd" clip-rule="evenodd"
    d="M259 5a5 5 0 0 0-5-5h-42a5 5 0 0 0-5 5v70a5 5 0 0 1-5 5H76a5 5 0 0 0-5 5v22.502a.5.5 0 0 1-.5.498C31.564 108 0 139.564 0 178.5S31.564 249 70.5 249C31.564 249 0 280.564 0 319.5S31.564 390 70.5 390C31.564 390 0 421.564 0 460.5S31.564 531 70.5 531C31.564 531 0 562.564 0 601.5S31.564 672 70.5 672a.5.5 0 0 1 .5.498V695a5 5 0 0 0 5 5h225a5 5 0 0 1 5 5v70a5 5 0 0 0 5 5h42a5 5 0 0 0 5-5v-70a5 5 0 0 1 5-5h36a5 5 0 0 1 5 5v70a5 5 0 0 0 5 5h42a5 5 0 0 0 5-5v-70a5 5 0 0 1 5-5h225a5 5 0 0 0 5-5v-95.395a5 5 0 0 1 2.436-4.293l75.377-45.019c3.248-1.94 3.248-6.646 0-8.586l-76.754-45.842a2.17 2.17 0 0 1 0-3.73l76.754-45.842c3.248-1.94 3.248-6.646 0-8.586l-76.754-45.842a2.17 2.17 0 0 1 0-3.73l76.754-45.842c3.248-1.94 3.248-6.646 0-8.586l-76.754-45.842a2.17 2.17 0 0 1 0-3.73l76.754-45.842c3.248-1.94 3.248-6.646 0-8.586l-75.377-45.019a5 5 0 0 1-2.436-4.293V85a5 5 0 0 0-5-5H558a5 5 0 0 1-5-5V5a5 5 0 0 0-5-5h-42a5 5 0 0 0-5 5v70a5 5 0 0 1-5 5h-36a5 5 0 0 1-5-5V5a5 5 0 0 0-5-5h-42a5 5 0 0 0-5 5v70a5 5 0 0 1-5 5h-36a5 5 0 0 1-5-5V5a5 5 0 0 0-5-5h-42a5 5 0 0 0-5 5v70a5 5 0 0 1-5 5h-36a5 5 0 0 1-5-5zM70.5 531h.5q0 .002-.002.002zm0-141h.5q0 .002-.002.002zm0-141h.5q0 .002-.002.002zm87.796 260h121.216q1.465 0 1.465-1.465v-42.847q0-1.83-1.465-1.831h-72.27a5 5 0 0 1-5-5v-55.551a5 5 0 0 1 5-5h72.27q1.465 0 1.465-1.465l-.366-42.481q0-1.464-1.465-1.464h-71.904a5 5 0 0 1-5-5v-48.594a5 5 0 0 1 5-5h71.904q1.465 0 1.465-1.465v-41.931q0-1.831-1.465-1.831H158.663q-1.465 0-1.465 1.465l-.366 257.629q0 1.831 1.464 1.831m182.923-6.592q16.845 10.254 36.804 10.254 20.325 0 36.987-9.888t26.734-26.916q9.887-17.03 9.887-38.452 0-22.156-10.986-37.354-10.803-15.198-29.48-25.635a813 813 0 0 1-6.409-3.295 723 723 0 0 0-11.902-6.409 893 893 0 0 0-11.718-6.592q-5.31-2.93-6.775-3.662-13.917-7.507-19.226-15.747-5.127-8.24-5.127-20.508 0-12.085 8.24-20.874t19.775-8.789q11.352 0 19.592 8.24t8.24 21.423l.366 30.762q0 1.464 1.465 1.465H449.8q1.465 0 1.465-1.465v-30.762q0-20.691-10.071-37.353-9.887-16.663-26.55-26.734-16.662-9.888-36.621-9.888-19.41 0-36.072 9.888-16.479 9.705-26.733 26.367-10.254 16.846-10.254 37.72 0 22.706 9.888 41.016 10.07 18.127 30.578 30.212a648 648 0 0 1 11.719 6.592 7804 7804 0 0 0 12.451 6.775q6.41 3.479 10.986 6.225 4.761 2.564 7.691 4.395 17.944 10.254 17.944 23.987 0 11.901-8.24 21.057-8.24 8.972-19.958 8.972-11.535 0-19.775-8.789-8.24-8.972-8.24-21.24v-17.212q0-2.014-1.465-2.014h-42.114q-1.831 0-1.831 2.014v17.212q0 20.508 9.887 37.719 10.07 17.03 26.734 27.283m168.274 0q16.845 10.254 37.17 10.254 20.691 0 37.17-10.254 16.48-10.437 26.551-27.649 9.887-17.394 9.887-38.452v-17.395q0-1.464-1.464-1.465h-42.481q-1.464 0-1.465 1.465v17.395q0 11.902-8.056 21.607-8.057 9.52-20.142 9.521-11.535 0-19.592-8.606-8.057-8.789-8.057-22.522V319.303q0-12.085 7.141-21.241t20.508-9.155q12.085 0 20.142 8.972 8.056 8.973 8.056 21.424v17.212q0 1.464 1.465 1.464h42.114q1.465 0 1.465-1.464v-17.212q0-21.058-9.887-38.086-9.705-17.212-26.185-27.283-16.296-10.071-37.17-10.071-20.508 0-37.353 10.437-16.663 10.254-26.185 27.283-9.52 16.845-9.521 37.72l-.366 117.004q0 21.24 9.704 38.635 9.888 17.212 26.551 27.466"
    fill="#fff" />
  <path
    d="M992.761 509H871.545q-1.464 0-1.464-1.831l.366-257.263q0-1.831 1.831-1.831h41.748q1.831 0 1.831 1.831l-.366 212.951h77.27q1.831 0 1.831 1.831v42.481q0 1.831-1.831 1.831m13.729-1.831L1053 249.54q.375-1.465 1.83-1.465h54.39q1.455 0 1.83 1.465l44.68 257.629q.18 1.831-1.47 1.831h-41.56c-1.23 0-1.9-.61-2.02-1.831l-4.03-27.466h-51.08l-4.03 27.466q-.18 1.831-1.83 1.831h-41.75q-1.47 0-1.47-1.831m73.43-172.852-16.85 105.286h36.08l-15.39-105.286-2.19-13.916zM1247.83 509h-67.2q-1.47 0-1.47-1.831l.74-257.629c0-.977.48-1.465 1.46-1.465h72.14c14.04 0 26.8 3.418 38.27 10.254q16.845 10.254 26.55 27.282c6.47 11.231 9.71 23.438 9.71 36.621 0 10.743-2.44 20.752-7.33 30.03-4.88 9.277-10.68 16.784-17.39 22.522 7.2 7.202 12.82 15.564 16.84 25.085 4.03 9.522 6.05 19.531 6.05 30.029q0 21.79-10.44 39.734-10.62 17.945-28.38 28.748c-11.84 7.08-25.03 10.62-39.55 10.62m5.67-216.431h-28.56v58.96h28.56q13.005 0 21.06-9.155c5.37-6.226 8.06-12.939 8.06-20.142q0-11.901-8.61-20.69c-5.74-5.982-12.57-8.973-20.51-8.973m-5.67 104.37h-22.89l-.37 66.285h23.26q13.545 0 23.25-9.888c6.47-6.592 9.71-14.404 9.71-23.438s-3.24-16.784-9.71-23.254q-9.705-9.705-23.25-9.705m169 115.723c-13.3 0-25.57-3.418-36.8-10.254q-16.665-10.254-26.73-27.283c-6.6-11.474-9.89-24.047-9.89-37.719v-17.212q0-2.014 1.83-2.014h42.11q1.47 0 1.47 2.014v17.212c0 8.178 2.74 15.259 8.24 21.24q8.235 8.789 19.77 8.789c7.82 0 14.47-2.991 19.96-8.972 5.5-6.104 8.24-13.123 8.24-21.057q0-13.733-17.94-23.987c-1.96-1.221-4.52-2.686-7.69-4.395-3.05-1.831-6.72-3.906-10.99-6.225q-6.405-3.48-12.45-6.775a669 669 0 0 0-11.72-6.592c-13.67-8.057-23.86-18.127-30.58-30.212-6.59-12.207-9.89-25.879-9.89-41.016q0-20.874 10.26-37.72c6.83-11.108 15.75-19.897 26.73-26.367 11.11-6.592 23.13-9.888 36.07-9.888 13.31 0 25.52 3.296 36.62 9.888q16.665 10.07 26.55 26.734 10.08 16.662 10.08 37.353v30.762q0 1.464-1.47 1.465h-42.11q-1.47 0-1.47-1.465l-.36-30.762c0-8.789-2.75-15.93-8.24-21.423-5.5-5.493-12.03-8.24-19.6-8.24q-11.535 0-19.77 8.789c-5.5 5.859-8.24 12.817-8.24 20.874q0 12.268 5.13 20.508c3.54 5.493 9.94 10.742 19.22 15.747q1.47.732 6.78 3.662c3.54 1.953 7.44 4.15 11.72 6.592 4.39 2.319 8.36 4.455 11.9 6.409 3.54 1.831 5.67 2.929 6.41 3.295 12.45 6.958 22.27 15.503 29.48 25.635q10.98 15.198 10.98 37.354c0 14.282-3.29 27.099-9.89 38.452q-10.065 17.029-26.73 26.916t-36.99 9.888"
    fill="#fff" />
</svg>